<svg width="154" height="19" fill="none" xmlns="http://www.w3.org/2000/svg"><path d="M10.446 19c-1.417 0-2.738-.227-3.963-.682a9.474 9.474 0 0 1-3.149-1.995 9.366 9.366 0 0 1-2.1-3.018C.745 12.151.5 10.882.5 9.5c0-1.382.245-2.65.735-3.805a9.364 9.364 0 0 1 2.1-3.018A9.422 9.422 0 0 1 6.51.709C7.717.236 9.038 0 10.472 0c1.593 0 3.027.28 4.304.84a8.274 8.274 0 0 1 3.254 2.414l-2.729 2.52c-.63-.718-1.33-1.251-2.1-1.601a5.773 5.773 0 0 0-2.519-.551c-.857 0-1.644.14-2.362.42a5.354 5.354 0 0 0-1.863 1.207 5.68 5.68 0 0 0-1.233 1.863c-.28.717-.42 1.513-.42 2.388s.14 1.67.42 2.388a5.68 5.68 0 0 0 1.233 1.863A5.356 5.356 0 0 0 8.32 14.96c.718.28 1.505.42 2.362.42.91 0 1.75-.175 2.52-.525.77-.368 1.47-.919 2.1-1.654l2.728 2.52a8.507 8.507 0 0 1-3.254 2.44c-1.277.56-2.72.84-4.33.84ZM29.196 18.685V15.93l-.262-.604v-4.934c0-.874-.272-1.557-.814-2.047-.525-.49-1.338-.735-2.44-.735-.753 0-1.496.123-2.231.368-.718.227-1.33.542-1.837.945l-1.47-2.86c.77-.543 1.697-.963 2.782-1.26a12.449 12.449 0 0 1 3.306-.447c2.152 0 3.823.508 5.013 1.522 1.19 1.015 1.785 2.599 1.785 4.75v8.057h-3.832Zm-4.304.21c-1.102 0-2.047-.184-2.834-.551-.787-.385-1.391-.901-1.81-1.548a3.916 3.916 0 0 1-.63-2.179c0-.84.2-1.574.603-2.204.42-.63 1.076-1.12 1.968-1.47.892-.367 2.056-.55 3.49-.55h3.753v2.387h-3.306c-.963 0-1.628.158-1.995.473-.35.315-.525.708-.525 1.18 0 .526.201.946.604 1.26.42.298.988.447 1.706.447.682 0 1.294-.158 1.837-.473.542-.332.936-.813 1.18-1.443l.63 1.89c-.297.909-.84 1.6-1.627 2.072-.787.473-1.802.709-3.044.709ZM36.733 18.685V4.566h3.91v3.99L40.092 7.4c.42-.998 1.093-1.75 2.02-2.257.928-.525 2.056-.788 3.386-.788v3.78a4.791 4.791 0 0 0-.472-.027 3.6 3.6 0 0 0-.447-.026c-1.12 0-2.03.324-2.729.97-.682.63-1.023 1.62-1.023 2.966v6.666h-4.094ZM54.837 18.895c-1.61 0-3.027-.315-4.252-.945-1.207-.63-2.143-1.487-2.808-2.571-.665-1.103-.997-2.354-.997-3.753 0-1.417.324-2.668.97-3.753A6.946 6.946 0 0 1 50.455 5.3c1.137-.63 2.423-.945 3.858-.945 1.382 0 2.624.298 3.726.893a6.447 6.447 0 0 1 2.65 2.519c.648 1.085.972 2.388.972 3.91 0 .158-.009.341-.026.551-.018.193-.035.376-.053.551H50.113v-2.388h9.316l-1.575.709c0-.735-.148-1.374-.446-1.916a3.166 3.166 0 0 0-1.233-1.26c-.525-.314-1.137-.472-1.837-.472s-1.321.157-1.863.472a3.125 3.125 0 0 0-1.234 1.286c-.297.543-.446 1.19-.446 1.942v.63c0 .77.166 1.452.499 2.047.35.578.83 1.024 1.443 1.338.63.298 1.365.447 2.204.447.753 0 1.409-.114 1.969-.341a4.787 4.787 0 0 0 1.574-1.024l2.178 2.362c-.647.735-1.46 1.303-2.44 1.706-.98.385-2.108.577-3.386.577ZM70.71 19c-1.47 0-2.878-.192-4.225-.577-1.347-.403-2.432-.919-3.254-1.549l1.443-3.201c.787.56 1.715 1.023 2.782 1.39 1.084.35 2.178.525 3.28.525.84 0 1.513-.078 2.02-.236.526-.175.91-.41 1.156-.708.244-.298.367-.639.367-1.024 0-.49-.192-.875-.577-1.154-.385-.298-.893-.534-1.522-.71-.63-.191-1.33-.367-2.1-.524a29.77 29.77 0 0 1-2.283-.63 9.74 9.74 0 0 1-2.073-.945 4.766 4.766 0 0 1-1.549-1.522c-.384-.63-.577-1.434-.577-2.414 0-1.05.28-2.003.84-2.86.577-.875 1.434-1.566 2.572-2.074C68.164.262 69.608 0 71.34 0c1.154 0 2.292.14 3.411.42 1.12.262 2.109.665 2.966 1.207l-1.312 3.228a10.74 10.74 0 0 0-2.572-1.076 9.145 9.145 0 0 0-2.52-.367c-.822 0-1.495.096-2.02.288-.525.193-.901.446-1.129.761a1.679 1.679 0 0 0-.34 1.05c0 .472.192.857.576 1.155.385.28.893.507 1.523.682.63.175 1.32.35 2.073.525.77.175 1.53.376 2.283.604a8.77 8.77 0 0 1 2.1.918c.63.385 1.137.892 1.521 1.522.403.63.604 1.426.604 2.388a4.966 4.966 0 0 1-.866 2.835c-.577.857-1.443 1.548-2.598 2.073-1.137.525-2.58.787-4.33.787ZM87.944 18.895c-1.523 0-2.878-.306-4.068-.918-1.19-.63-2.126-1.496-2.808-2.598-.665-1.103-.997-2.354-.997-3.753 0-1.417.332-2.668.997-3.753.682-1.102 1.618-1.96 2.808-2.572 1.19-.63 2.545-.945 4.068-.945 1.487 0 2.781.315 3.884.945a5.611 5.611 0 0 1 2.44 2.65l-3.175 1.706c-.368-.664-.831-1.154-1.391-1.47a3.49 3.49 0 0 0-1.785-.472c-.7 0-1.33.158-1.89.473a3.512 3.512 0 0 0-1.338 1.338c-.314.578-.472 1.277-.472 2.1 0 .822.158 1.522.472 2.1a3.511 3.511 0 0 0 1.339 1.337c.56.316 1.19.473 1.89.473a3.65 3.65 0 0 0 1.784-.446c.56-.315 1.023-.814 1.39-1.496l3.176 1.732a5.775 5.775 0 0 1-2.44 2.65c-1.103.613-2.397.919-3.884.919ZM103.164 18.895c-1.504 0-2.843-.315-4.015-.945a7.355 7.355 0 0 1-2.755-2.571c-.665-1.103-.998-2.354-.998-3.753 0-1.417.333-2.668.998-3.753A7.087 7.087 0 0 1 99.148 5.3c1.172-.63 2.511-.945 4.015-.945 1.487 0 2.817.315 3.989.945 1.172.612 2.091 1.461 2.756 2.546.665 1.084.997 2.344.997 3.779 0 1.4-.332 2.65-.997 3.753-.665 1.084-1.584 1.941-2.756 2.571-1.172.63-2.502.945-3.989.945Zm0-3.36c.683 0 1.295-.156 1.837-.472a3.38 3.38 0 0 0 1.286-1.338c.315-.595.473-1.294.473-2.1 0-.822-.158-1.521-.473-2.099a3.381 3.381 0 0 0-1.286-1.338c-.542-.315-1.154-.473-1.837-.473-.682 0-1.294.158-1.837.473a3.57 3.57 0 0 0-1.312 1.338c-.315.578-.472 1.277-.472 2.1 0 .805.157 1.504.472 2.1a3.57 3.57 0 0 0 1.312 1.337c.543.316 1.155.473 1.837.473ZM113.642 18.685V4.566h3.911v3.99l-.551-1.155c.419-.998 1.093-1.75 2.02-2.257.927-.525 2.056-.788 3.386-.788v3.78a4.803 4.803 0 0 0-.473-.027 3.592 3.592 0 0 0-.446-.026c-1.12 0-2.029.324-2.729.97-.683.63-1.024 1.62-1.024 2.966v6.666h-4.094ZM131.746 18.895c-1.609 0-3.026-.315-4.251-.945-1.207-.63-2.143-1.487-2.808-2.571-.665-1.103-.997-2.354-.997-3.753 0-1.417.323-2.668.971-3.753a6.935 6.935 0 0 1 2.703-2.572c1.137-.63 2.423-.945 3.857-.945 1.383 0 2.625.298 3.727.893a6.442 6.442 0 0 1 2.65 2.519c.648 1.085.971 2.388.971 3.91 0 .158-.008.341-.026.551-.017.193-.035.376-.052.551h-11.469v-2.388h9.317l-1.575.709c0-.735-.149-1.374-.446-1.916a3.167 3.167 0 0 0-1.233-1.26c-.525-.314-1.138-.472-1.837-.472-.7 0-1.321.157-1.864.472a3.12 3.12 0 0 0-1.233 1.286c-.297.543-.446 1.19-.446 1.942v.63c0 .77.166 1.452.498 2.047a3.55 3.55 0 0 0 1.444 1.338c.63.298 1.364.447 2.204.447.753 0 1.409-.114 1.968-.341a4.78 4.78 0 0 0 1.575-1.024l2.178 2.362c-.647.735-1.461 1.303-2.44 1.706-.98.385-2.109.577-3.386.577Z" fill="#1877F2"/><path opacity=".64" d="m150.73 5-2.215-5h.897l1.549 3.668L152.51 0h.896l-2.214 5h-.462Zm-2.378 0V0h.87v5h-.87Zm4.348 0V0h.869v5h-.869Zm-7.609 0V.435h.87V5h-.87ZM143.569.76V0h3.914v.76h-3.914Z" fill="#8C8C8C"/></svg>