<svg width="40" height="41" viewBox="0 0 40 41" fill="none" xmlns="http://www.w3.org/2000/svg">
<rect y="0.5" width="40" height="40" rx="20" fill="#1877F2"/>
<path fill-rule="evenodd" clip-rule="evenodd" d="M13.7552 19.6659C17.6421 17.9724 20.234 16.856 21.5309 16.3166C25.2337 14.7765 26.0031 14.5089 26.5046 14.5001C26.6149 14.4982 26.8615 14.5255 27.0213 14.6551C27.1562 14.7646 27.1933 14.9124 27.211 15.0162C27.2288 15.12 27.2509 15.3564 27.2333 15.5411C27.0327 17.6494 26.1644 22.7657 25.7227 25.1271C25.5358 26.1263 25.1678 26.4613 24.8115 26.4941C24.0372 26.5653 23.4493 25.9823 22.6993 25.4908C21.5258 24.7215 20.8629 24.2426 19.7238 23.492C18.4074 22.6245 19.2607 22.1477 20.011 21.3685C20.2073 21.1646 23.6188 18.0615 23.6849 17.78C23.6931 17.7448 23.7008 17.6136 23.6228 17.5443C23.5449 17.475 23.4298 17.4987 23.3468 17.5175C23.2291 17.5442 21.3544 18.7833 17.7227 21.2348C17.1906 21.6002 16.7086 21.7783 16.2767 21.7689C15.8007 21.7586 14.8849 21.4998 14.2041 21.2785C13.3691 21.007 12.7055 20.8635 12.7633 20.4026C12.7934 20.1625 13.124 19.9169 13.7552 19.6659Z" fill="white"/>
</svg>
