<svg width="40" height="41" viewBox="0 0 40 41" fill="none" xmlns="http://www.w3.org/2000/svg">
<rect x="0.5" y="1" width="39" height="39" rx="19.5" fill="white"/>
<path fill-rule="evenodd" clip-rule="evenodd" d="M15.05 15.5502C15.3303 15.2699 15.7849 15.2699 16.0653 15.5502L24.9494 24.4344C25.2298 24.7148 25.2298 25.1694 24.9494 25.4497C24.6691 25.7301 24.2145 25.7301 23.9341 25.4497L15.05 16.5656C14.7696 16.2852 14.7696 15.8306 15.05 15.5502Z" fill="#595959"/>
<path fill-rule="evenodd" clip-rule="evenodd" d="M15.0501 25.4497C14.7698 25.1694 14.7698 24.7148 15.0501 24.4344L23.9343 15.5502C24.2147 15.2699 24.6693 15.2699 24.9496 15.5502C25.23 15.8306 25.23 16.2852 24.9496 16.5656L16.0655 25.4497C15.7851 25.7301 15.3305 25.7301 15.0501 25.4497Z" fill="#595959"/>
<rect x="0.5" y="1" width="39" height="39" rx="19.5" stroke="#F0F0F0"/>
</svg>
