<svg width="40" height="41" viewBox="0 0 40 41" fill="none" xmlns="http://www.w3.org/2000/svg">
<rect x="0.5" y="1" width="39" height="39" rx="19.5" fill="white"/>
<path fill-rule="evenodd" clip-rule="evenodd" d="M13 16.782C13 16.3855 13.3214 16.0641 13.7179 16.0641H26.2821C26.6786 16.0641 27 16.3855 27 16.782C27 17.1785 26.6786 17.5 26.2821 17.5H13.7179C13.3214 17.5 13 17.1785 13 16.782Z" fill="#8C8C8C"/>
<path fill-rule="evenodd" clip-rule="evenodd" d="M13 24.2179C13 23.8214 13.3214 23.5 13.7179 23.5H26.2821C26.6786 23.5 27 23.8214 27 24.2179C27 24.6144 26.6786 24.9359 26.2821 24.9359H13.7179C13.3214 24.9359 13 24.6144 13 24.2179Z" fill="#8C8C8C"/>
<rect x="0.5" y="1" width="39" height="39" rx="19.5" stroke="#F0F0F0"/>
</svg>
